<svg id="Livello_1" xmlns:inkscape="http://www.inkscape.org/namespaces/inkscape" xmlns="http://www.w3.org/2000/svg" enable-background="new 0 0 980 800" xml:space="preserve" viewBox="0 0 600 300" version="1.1" inkscape:version="0.92.4 (unknown)" y="0px" x="0px" sodipodi:docname="logo arpa colori.svg" xmlns:sodipodi="http://sodipodi.sourceforge.net/DTD/sodipodi-0.dtd"><sodipodi:namedview id="namedview159" bordercolor="#666666" inkscape:pageshadow="2" guidetolerance="10" pagecolor="#ffffff" gridtolerance="10" inkscape:window-maximized="0" inkscape:zoom="1.18" objecttolerance="10" borderopacity="1" inkscape:current-layer="Livello_1" inkscape:cx="190.64515" inkscape:cy="210.92499" inkscape:window-y="0" inkscape:window-x="0" inkscape:window-width="1573" showgrid="false" inkscape:pageopacity="0" inkscape:window-height="891"/>
<g id="g156" transform="matrix(1.1925 0 0 1.1925 -283.58 -327.54)"><g fill="#009856">
	<path id="path2" d="m365.31 514.9h4.65v-5.879c0.374 0.416 1.443 1.246 3.18 1.246 4.035 0 6.788-3.234 6.788-8.549 0-4.365-2.913-7.541-6.307-7.541-2.004 0-3.126 1.127-3.608 1.959h-0.053v-1.604h-4.65zm9.968-12.677c0 1.604-1.149 2.881-2.619 2.881-1.443 0-2.592-1.277-2.592-2.881s1.149-2.879 2.592-2.879c1.47 0 2.619 1.275 2.619 2.879z" fill-rule="evenodd" inkscape:connector-curvature="0" clip-rule="evenodd"/>
	<path id="path4" d="m394.47 503.32c-0.882 1.039-2.752 2.197-4.33 2.197-0.668 0-1.362-0.236-1.603-0.414l6.975-5.494c-0.535-1.898-1.604-5.432-6.147-5.432-3.18 0-7.242 2.553-7.242 8.074 0 6.383 4.597 8.016 6.868 8.016 2.939 0 4.944-1.336 5.799-1.898zm-7.804-1.007c-0.053-0.297-0.107-0.564-0.107-0.832 0-1.84 1.069-2.85 2.352-2.85 0.374 0 1.229 0.119 1.523 0.533z" fill-rule="evenodd" inkscape:connector-curvature="0" clip-rule="evenodd"/>
	<path id="path6" inkscape:connector-curvature="0" d="m397.9 509.91h4.65v-7.451c0-1.752 0.455-2.762 3.047-2.762v-5.166c-1.63 0-2.405 0.355-2.993 1.543h-0.054v-1.543h-4.65z"/>
	<polygon id="polygon8" points="421.4 509.91 421.4 488.53 416.75 488.53 416.75 509.91"/>
	<path id="path10" d="m425.36 498.39c0.855-0.148 1.523-0.355 2.966-0.355 2.058 0 2.512 0.475 2.512 2.018-0.428-0.236-1.203-0.414-2.031-0.414-3.1 0-4.784 2.582-4.784 5.225 0 3.473 2.004 5.402 4.303 5.402 1.871 0 2.833-1.156 2.993-1.484h0.054v1.129h4.008v-10.539c0-4.098-2.004-4.84-5.665-4.84-1.256 0-2.539 0.119-3.795 0.207zm4.516 4.572c0.775 0 1.417 0.713 1.417 1.574s-0.642 1.572-1.417 1.572-1.417-0.711-1.417-1.572 0.643-1.574 1.417-1.574z" fill-rule="evenodd" inkscape:connector-curvature="0" clip-rule="evenodd"/>
	<path id="path12" d="m447.48 509.91h5.024v-5.641c4.837 0.088 8.285-2.02 8.285-7.809 0-4.928-2.245-7.928-6.681-7.928h-6.628zm5.024-16.328h0.962c1.71 0 2.298 1.275 2.298 2.641 0 1.367-0.588 2.643-2.298 2.643h-0.962z" fill-rule="evenodd" inkscape:connector-curvature="0" clip-rule="evenodd"/>
	<path id="path14" inkscape:connector-curvature="0" d="m463.7 509.91h4.65v-7.451c0-1.752 0.454-2.762 3.046-2.762v-5.166c-1.63 0-2.405 0.355-2.993 1.543h-0.053v-1.543h-4.65z"/>
	<path id="path16" d="m473.54 502.22c0 4.453 3.234 8.045 7.242 8.045 4.009 0 7.242-3.592 7.242-8.045s-3.233-8.045-7.242-8.045c-4.008 0-7.242 3.592-7.242 8.045zm4.65 0c0-1.604 1.149-2.879 2.592-2.879s2.592 1.275 2.592 2.879-1.149 2.881-2.592 2.881-2.592-1.278-2.592-2.881z" fill-rule="evenodd" inkscape:connector-curvature="0" clip-rule="evenodd"/>
	<path id="path18" inkscape:connector-curvature="0" d="m491.23 494.53h-0.962v4.453h0.962v7.037c0 3.889 2.085 3.889 6.014 3.889l0.694-5.285c-0.16 0.061-0.294 0.119-0.694 0.119-1.363 0-1.363-0.801-1.363-1.543v-4.217h1.711v-4.453h-1.711v-4.869l-4.65 2.969v1.9z"/>
	<path id="path20" d="m512.47 503.32c-0.883 1.039-2.753 2.197-4.33 2.197-0.668 0-1.362-0.236-1.604-0.414l6.976-5.494c-0.535-1.898-1.604-5.432-6.147-5.432-3.18 0-7.242 2.553-7.242 8.074 0 6.383 4.597 8.016 6.868 8.016 2.939 0 4.944-1.336 5.8-1.898zm-7.804-1.007c-0.054-0.297-0.107-0.564-0.107-0.832 0-1.84 1.069-2.85 2.352-2.85 0.375 0 1.229 0.119 1.523 0.533z" fill-rule="evenodd" inkscape:connector-curvature="0" clip-rule="evenodd"/>
	<polygon id="polygon22" points="518.89 499.7 515.02 509.91 525.44 509.91 526.35 504.74 521.94 504.74 525.95 494.53 515.12 494.53 515.12 499.7"/></g><g fill-rule="evenodd" clip-rule="evenodd" fill="#009856">
	<path id="path24" d="m528.94 509.91h4.651v-15.379h-4.651zm0-16.744h4.651v-4.633h-4.651z" inkscape:connector-curvature="0"/>
	<path id="path26" d="m536.29 502.22c0 4.453 3.233 8.045 7.242 8.045s7.242-3.592 7.242-8.045-3.233-8.045-7.242-8.045-7.242 3.592-7.242 8.045zm4.649 0c0-1.604 1.149-2.879 2.593-2.879s2.592 1.275 2.592 2.879-1.148 2.881-2.592 2.881-2.593-1.278-2.593-2.881z" inkscape:connector-curvature="0"/>
	<path id="path28" d="m553.56 509.91h4.65v-8.432c0-0.98 0.188-2.137 1.337-2.137 1.255 0 1.416 1.156 1.416 2.137v8.432h4.649v-11.31c0-3.268-2.084-4.424-4.009-4.424-1.389 0-2.485 0.682-3.394 1.781v-1.426h-4.65v15.379z" inkscape:connector-curvature="0"/>
	<path id="path30" d="m580.72 503.32c-0.882 1.039-2.753 2.197-4.329 2.197-0.668 0-1.363-0.236-1.604-0.414l6.975-5.494c-0.534-1.898-1.604-5.432-6.146-5.432-3.18 0-7.242 2.553-7.242 8.074 0 6.383 4.597 8.016 6.868 8.016 2.94 0 4.944-1.336 5.8-1.898zm-7.804-1.007c-0.053-0.297-0.106-0.564-0.106-0.832 0-1.84 1.068-2.85 2.352-2.85 0.374 0 1.229 0.119 1.523 0.533z" inkscape:connector-curvature="0"/>
	<path id="path32" d="m591.27 509.91h5.426l0.694-2.375h6.628l0.694 2.375h5.426l-6.468-21.377h-5.666zm11.251-7.66h-3.58l1.736-5.938h0.054z" inkscape:connector-curvature="0"/>
	</g><path id="path34" inkscape:connector-curvature="0" fill="#009856" d="m612.38 509.91h4.65v-8.461c0-0.742 0-1.871 1.336-1.871 1.283 0 1.283 1.336 1.283 2.078v8.254h4.649v-8.461c0-0.742 0-1.871 1.336-1.871 1.283 0 1.283 1.336 1.283 2.078v8.254h4.65v-11.31c0-2.229-1.363-4.424-4.303-4.424-0.988 0-2.485 0.414-3.661 1.781-1.363-1.781-2.593-1.781-3.261-1.781-1.845 0-2.993 1.424-3.261 1.781h-0.053v-1.426h-4.65v15.379z"/><g fill-rule="evenodd" clip-rule="evenodd" fill="#009856">
	<path id="path36" d="m634.91 502.07c0 2.553 0 8.193 6.948 8.193 3.661 0 7.296-2.107 7.296-8.223 0-5.73-3.607-7.867-6.28-7.867-1.416 0-2.913 0.652-3.26 1.246h-0.054v-6.889h-4.65zm4.544 0.149c0-1.604 1.148-2.879 2.538-2.879 1.363 0 2.513 1.275 2.513 2.879s-1.149 2.881-2.513 2.881c-1.389 0-2.538-1.278-2.538-2.881z" inkscape:connector-curvature="0"/>
	<path id="path38" d="m652.07 509.91h4.65v-15.379h-4.65zm0-16.744h4.65v-4.633h-4.65z" inkscape:connector-curvature="0"/>
	<path id="path40" d="m671.77 503.32c-0.882 1.039-2.752 2.197-4.329 2.197-0.669 0-1.363-0.236-1.604-0.414l6.976-5.494c-0.535-1.898-1.604-5.432-6.147-5.432-3.18 0-7.242 2.553-7.242 8.074 0 6.383 4.597 8.016 6.868 8.016 2.94 0 4.944-1.336 5.8-1.898zm-7.803-1.007c-0.055-0.297-0.107-0.564-0.107-0.832 0-1.84 1.069-2.85 2.352-2.85 0.374 0 1.229 0.119 1.523 0.533z" inkscape:connector-curvature="0"/>
	<path id="path42" d="m675.2 509.91h4.649v-8.432c0-0.98 0.188-2.137 1.337-2.137 1.256 0 1.416 1.156 1.416 2.137v8.432h4.65v-11.31c0-3.268-2.084-4.424-4.009-4.424-1.39 0-2.485 0.682-3.395 1.781v-1.426h-4.65v15.379z" inkscape:connector-curvature="0"/>
	</g><g fill="#009856"><path id="path44" inkscape:connector-curvature="0" d="m691.17 494.53h-0.962v4.453h0.962v7.037c0 3.889 2.085 3.889 6.014 3.889l0.694-5.285c-0.16 0.061-0.293 0.119-0.694 0.119-1.363 0-1.363-0.801-1.363-1.543v-4.217h1.711v-4.453h-1.711v-4.869l-4.65 2.969v1.9z"/>
	<path id="path46" d="m701.32 498.39c0.854-0.148 1.523-0.355 2.966-0.355 2.059 0 2.513 0.475 2.513 2.018-0.428-0.236-1.203-0.414-2.031-0.414-3.1 0-4.783 2.582-4.783 5.225 0 3.473 2.004 5.402 4.302 5.402 1.871 0 2.833-1.156 2.993-1.484h0.054v1.129h4.009v-10.539c0-4.098-2.004-4.84-5.666-4.84-1.256 0-2.538 0.119-3.795 0.207zm4.517 4.572c0.774 0 1.416 0.713 1.416 1.574s-0.642 1.572-1.416 1.572c-0.775 0-1.417-0.711-1.417-1.572s0.642-1.574 1.417-1.574z" fill-rule="evenodd" inkscape:connector-curvature="0" clip-rule="evenodd"/>
	<polygon id="polygon48" points="719.48 509.91 719.48 488.53 714.82 488.53 714.82 509.91"/></g><g fill-rule="evenodd" clip-rule="evenodd" fill="#009856">
	<path id="path50" d="m734.53 503.32c-0.882 1.039-2.752 2.197-4.329 2.197-0.668 0-1.363-0.236-1.604-0.414l6.976-5.494c-0.535-1.898-1.604-5.432-6.146-5.432-3.181 0-7.243 2.553-7.243 8.074 0 6.383 4.597 8.016 6.868 8.016 2.94 0 4.944-1.336 5.8-1.898zm-7.802-1.007c-0.054-0.297-0.107-0.564-0.107-0.832 0-1.84 1.068-2.85 2.352-2.85 0.374 0 1.229 0.119 1.523 0.533z" inkscape:connector-curvature="0"/>
	<path id="path52" d="m516.59 479.98h5.425l0.694-2.375h6.628l0.694 2.375h5.425l-6.47-21.38h-5.666zm11.25-7.661h-3.581l1.74-5.94h0.053z" inkscape:connector-curvature="0"/>
	<path id="path54" d="m536.23 482.35c1.737 1.691 3.688 2.85 6.04 2.85 4.623 0 6.573-3.354 6.573-6.354 0-2.137-0.747-3.117-1.148-3.621 0.642-0.654 1.31-2.139 1.31-3.801 0-2.375-0.936-4.127-1.337-4.514l1.391-2.314h-2.833v-0.061c0.24 0.061-2.485-0.297-3.795-0.297-2.512 0-5.906 1.781-5.906 7.186 0 2.969 1.791 6.799 6.254 6.799 0.428 0 0.962-0.029 1.416-0.178v0.713c0 1.039-0.774 1.691-1.791 1.691-1.389 0-2.966-0.742-3.874-1.93zm4.73-11.104c0-1.068 0.774-1.959 1.711-1.959 0.881 0 1.683 0.891 1.683 1.959 0 1.01-0.802 1.93-1.683 1.93-0.937 0-1.711-0.92-1.711-1.93z" inkscape:connector-curvature="0"/>
	<path id="path56" d="m562.87 473.38c-0.882 1.039-2.752 2.197-4.329 2.197-0.668 0-1.362-0.238-1.603-0.416l6.974-5.492c-0.534-1.9-1.603-5.434-6.146-5.434-3.181 0-7.242 2.555-7.242 8.076 0 6.383 4.597 8.016 6.867 8.016 2.94 0 4.944-1.336 5.8-1.9zm-7.803-1.01c-0.054-0.297-0.107-0.563-0.107-0.83 0-1.842 1.069-2.85 2.353-2.85 0.374 0 1.229 0.117 1.522 0.533z" inkscape:connector-curvature="0"/>
	<path id="path58" d="m565.5 479.98h4.649v-8.432c0-0.98 0.187-2.139 1.336-2.139 1.256 0 1.416 1.158 1.416 2.139v8.432h4.65v-11.313c0-3.266-2.085-4.424-4.009-4.424-1.39 0-2.485 0.684-3.394 1.781v-1.424h-4.649v15.38z" inkscape:connector-curvature="0"/>
	</g><polygon id="polygon60" points="583.22 469.76 579.35 479.98 589.77 479.98 590.68 474.81 586.27 474.81 590.28 464.6 579.46 464.6 579.46 469.76" fill="#009856"/><g fill-rule="evenodd" clip-rule="evenodd" fill="#009856">
	<path id="path62" d="m592.46 479.98h4.649v-15.379h-4.649zm0-16.745h4.649v-4.64h-4.649z" inkscape:connector-curvature="0"/>
	<path id="path64" d="m600.26 468.46c0.855-0.148 1.523-0.355 2.967-0.355 2.058 0 2.512 0.475 2.512 2.018-0.428-0.236-1.203-0.416-2.031-0.416-3.1 0-4.783 2.584-4.783 5.227 0 3.473 2.004 5.402 4.303 5.402 1.87 0 2.832-1.158 2.992-1.484h0.054v1.129h4.009v-10.539c0-4.098-2.004-4.84-5.665-4.84-1.257 0-2.539 0.119-3.795 0.207zm4.516 4.572c0.774 0 1.416 0.713 1.416 1.574 0 0.859-0.642 1.572-1.416 1.572-0.775 0-1.417-0.713-1.417-1.572 0-0.861 0.642-1.574 1.417-1.574z" inkscape:connector-curvature="0"/>
	<path id="path66" d="m620.76 479.98h5.024v-8.818h0.053l3.395 8.818h5.665l-3.688-9.264c1.684-1.246 2.619-2.969 2.619-5.254 0-4.543-2.646-6.859-6.468-6.859h-6.601v21.377zm5.024-16.627c1.87 0 3.02 0.713 3.02 2.643s-1.149 2.643-3.02 2.643z" inkscape:connector-curvature="0"/>
	<path id="path68" d="m647.8 473.38c-0.882 1.039-2.753 2.197-4.329 2.197-0.668 0-1.363-0.238-1.604-0.416l6.975-5.492c-0.534-1.9-1.604-5.434-6.146-5.434-3.18 0-7.242 2.555-7.242 8.076 0 6.383 4.597 8.016 6.868 8.016 2.939 0 4.944-1.336 5.799-1.9zm-7.804-1.01c-0.053-0.297-0.106-0.563-0.106-0.83 0-1.842 1.069-2.85 2.352-2.85 0.374 0 1.229 0.117 1.523 0.533z" inkscape:connector-curvature="0"/>
	<path id="path70" d="m649.65 482.35c1.736 1.691 3.688 2.85 6.039 2.85 4.623 0 6.573-3.354 6.573-6.354 0-2.137-0.748-3.117-1.148-3.621 0.642-0.654 1.31-2.139 1.31-3.801 0-2.375-0.936-4.127-1.336-4.514l1.389-2.314h-2.832v-0.061c0.24 0.061-2.485-0.297-3.795-0.297-2.512 0-5.905 1.781-5.905 7.186 0 2.969 1.79 6.799 6.253 6.799 0.428 0 0.962-0.029 1.416-0.178v0.713c0 1.039-0.775 1.691-1.79 1.691-1.39 0-2.967-0.742-3.875-1.93zm4.73-11.104c0-1.068 0.774-1.959 1.71-1.959 0.882 0 1.684 0.891 1.684 1.959 0 1.01-0.802 1.93-1.684 1.93-0.936 0-1.71-0.92-1.71-1.93z" inkscape:connector-curvature="0"/>
	<path id="path72" d="m664.67 479.98h4.649v-15.379h-4.649zm0-16.745h4.649v-4.64h-4.649z" inkscape:connector-curvature="0"/>
	<path id="path74" d="m671.22 472.29c0 4.453 3.234 8.045 7.242 8.045 4.009 0 7.242-3.592 7.242-8.045s-3.233-8.047-7.242-8.047c-4.008 0-7.242 3.594-7.242 8.047zm4.649 0c0-1.604 1.149-2.881 2.593-2.881s2.593 1.277 2.593 2.881-1.149 2.879-2.593 2.879-2.593-1.275-2.593-2.879z" inkscape:connector-curvature="0"/>
	<path id="path76" d="m687.67 479.98h4.649v-8.432c0-0.98 0.188-2.139 1.336-2.139 1.256 0 1.416 1.158 1.416 2.139v8.432h4.65v-11.313c0-3.266-2.085-4.424-4.009-4.424-1.39 0-2.484 0.684-3.394 1.781v-1.424h-4.649v15.38z" inkscape:connector-curvature="0"/>
	<path id="path78" d="m702.94 468.46c0.855-0.148 1.523-0.355 2.967-0.355 2.057 0 2.512 0.475 2.512 2.018-0.428-0.236-1.203-0.416-2.031-0.416-3.1 0-4.783 2.584-4.783 5.227 0 3.473 2.004 5.402 4.303 5.402 1.87 0 2.832-1.158 2.992-1.484h0.054v1.129h4.009v-10.539c0-4.098-2.004-4.84-5.666-4.84-1.256 0-2.538 0.119-3.794 0.207zm4.517 4.572c0.774 0 1.416 0.713 1.416 1.574 0 0.859-0.642 1.572-1.416 1.572-0.775 0-1.417-0.713-1.417-1.572 0-0.861 0.642-1.574 1.417-1.574z" inkscape:connector-curvature="0"/>
	</g><polygon id="polygon80" points="720.28 479.98 720.28 458.6 715.64 458.6 715.64 479.98" fill="#009856"/>
	<path id="path82" d="m734.53 473.38c-0.882 1.039-2.753 2.197-4.329 2.197-0.668 0-1.363-0.238-1.604-0.416l6.975-5.492c-0.534-1.9-1.604-5.434-6.146-5.434-3.18 0-7.242 2.555-7.242 8.076 0 6.383 4.597 8.016 6.868 8.016 2.939 0 4.943-1.336 5.799-1.9zm-7.803-1.01c-0.053-0.297-0.106-0.563-0.106-0.83 0-1.842 1.068-2.85 2.352-2.85 0.374 0 1.229 0.117 1.523 0.533z" fill-rule="evenodd" inkscape:connector-curvature="0" clip-rule="evenodd" fill="#009856"/>
	<path id="path84" d="m650.69 373.51c7.428-0.967 13.231-2.321 25.767-2.321 17.873 0 21.819 3.095 21.819 13.154-3.714-1.547-10.446-2.708-17.642-2.708-26.927 0-41.551 16.829-41.551 34.045 0 22.633 17.41 35.207 37.373 35.207 16.248 0 24.604-7.545 25.998-9.672h0.464v7.35h34.819v-68.67c0-26.695-17.409-31.531-49.211-31.531-10.91 0-22.052 0.773-32.962 1.354zm39.23 29.791c6.731 0 12.303 4.643 12.303 10.252s-5.571 10.252-12.303 10.252-12.303-4.643-12.303-10.252 5.571-10.252 12.303-10.252z" fill-rule="evenodd" inkscape:connector-curvature="0" clip-rule="evenodd" fill="#005da4"/><g stroke-miterlimit="3.8637">
	<polygon id="polygon86" stroke="#6dcff6" points="538.1 320.1 619.68 447.77 701.01 320.1" stroke-width="2.8374" fill="#6dcff6"/>
	<polygon id="polygon88" stroke="#000" points="629.23 325.73 605.29 324.47 605.29 345.27 598.76 344.73 597.8 364.17 637.64 374.73 656.52 342.3 636.13 329.27 629.42 346.78 624.76 345.29" stroke-width=".50050"/><g stroke-width="0">
	<polygon id="polygon90" points="642.03 376.11 635.9 374.22 643.69 361.24 649.35 363.6" fill="#ce7b2d"/>
	<polygon id="polygon92" points="566.95 354.36 585.22 382.18 643.08 385 648.04 377.78" fill="#a7a9ac"/>
	<polygon id="polygon94" points="580.59 375.04 595.81 398.77 622.24 394.28 637.34 383.19" fill="#bfd730"/></g></g><g fill="#fff">
	<polygon id="polygon96" points="613.76 327.89 613.51 334.15 618.69 336.11 619.51 328.41"/>
	<polygon id="polygon98" points="613.66 339.28 613.71 345.16 617.22 345.67 618.03 339.51"/>
	<polygon id="polygon100" points="640.86 337.19 637.08 345.68 640.86 347.74 646.18 339.42"/></g><g stroke-width="0" stroke-miterlimit="3.8637" fill="#009856">
	<path id="path102" d="m646.63 355.24c0-2.567 2.854-4.648 6.374-4.648 3.521 0 6.375 2.081 6.375 4.648s-2.854 4.648-6.375 4.648c-3.52 0-6.374-2.081-6.374-4.648z" inkscape:connector-curvature="0"/>
	<path id="path104" d="m638.73 349.94c0-4.01 3.211-7.26 7.171-7.26 3.961 0 7.171 3.25 7.171 7.26s-3.21 7.26-7.171 7.26-7.171-3.25-7.171-7.26z" inkscape:connector-curvature="0"/>
	<path id="path106" d="m635.08 359.06c0-3.656 3.396-6.621 7.586-6.621s7.586 2.964 7.586 6.621-3.396 6.621-7.586 6.621c-4.189-0.001-7.586-2.965-7.586-6.621z" inkscape:connector-curvature="0"/>
	<path id="path108" d="m646.99 361.89c0-3.614 2.663-6.544 5.949-6.544 3.285 0 5.948 2.93 5.948 6.544 0 3.615-2.663 6.545-5.948 6.545-3.286 0-5.949-2.93-5.949-6.545z" inkscape:connector-curvature="0"/></g><g stroke-linejoin="round" stroke="#000" stroke-miterlimit="3.8637" fill="none">
	<polyline id="polyline110" points="596 350.31 582.59 329.03 586.96 350.31" stroke-width="1.2897"/>
	<polygon id="polygon112" points="579.51 339.75 584.52 333.82 592.81 336.19" stroke-width="1.3544"/>
	<path id="path114" d="m589.74 332.05-10.779 2.888 4.068-4.556zm3.44 8.335-10.778 2.888 4.037-4.869z" inkscape:connector-curvature="0" stroke-width="1.0882"/>
	</g><polygon id="polygon116" points="624.96 362.29 629.83 365.44 633.56 360.56 629.83 356.55" stroke-miterlimit="3.8637" stroke-width="0" fill="#bfd730"/>
	<path id="path118" d="m614.06 349.91c0-1.577 1.277-2.854 2.854-2.854 1.576 0 2.854 1.278 2.854 2.854s-1.278 2.855-2.854 2.855c-1.577 0-2.854-1.279-2.854-2.855z" inkscape:connector-curvature="0" stroke-miterlimit="3.8637" stroke-width="0" fill="#0089cf"/>
	<polygon id="polygon120" points="618.39 365.4 616.7 367.58 616.35 373.47 613.31 367 615.84 362.57 613.89 353.94 620.71 353.97 627.02 359.7 621.28 357.7 625.27 375.17" fill="#0089cf"/><g stroke="#fff" stroke-width="0.378" stroke-miterlimit="3.8637" fill="#fff">
	<polygon id="polygon122" points="627.2 378.04 621.73 376.89 622.07 375.33 627.49 376.6"/>
	<polygon id="polygon124" points="615.34 375.5 607.8 373.9 608.2 371.93 615.68 373.72"/>
	<polygon id="polygon126" points="601.46 372.45 593.87 370.84 594.39 368.65 601.87 370.5"/>
	</g><path id="path128" d="m664.05 369.85-8.332 13.273c-6.638 1.566-8.723 5.728-10.021 7.294-1.352 1.631-5.091 9.27-10.028 13.663-6.925 6.16-12.47 8.332-21.605 9.898-3.462 0.592-5.472 0.738-8.981 0.648l-13.02-21.6c7.026 0.779 11.059 1.168 17.704 0.389 6.745-0.791 13.192-2.44 16.674-5.088 4.682-3.562 7.91-9.912 14.822-13.654 7.986-4.322 14.06-5.467 22.782-4.818z" inkscape:connector-curvature="0" stroke="#0089cf" stroke-miterlimit="3.8637" stroke-width=".2142" fill="#0089cf"/>
	<path id="path130" d="m593.98 347.39c-4.106-4.107-13.83-3.488-17.071 1.757-2.28 3.689-1.983 8.839 0.494 11.604 2.351 2.623 5.498 4.398 8.913 3.044 1.671-0.662 3.511-2.959 3.522-2.971 0.019-0.019 2.979 5.432 7.188 5.069 5.74-0.495 5.104-6.906 5.564-7.023 3.252-0.824 7.736-3.345 8.239-7.72 0.515-4.476-2.224-8.434-6.606-9.476-4.449-1.058-8.806 1.372-10.243 5.716z" inkscape:connector-curvature="0" stroke="#0089cf" stroke-miterlimit="3.8637" stroke-width=".2142" fill="#0089cf"/>
	<polygon id="polygon132" points="703.83 286 703.83 314.07 535.5 314.07 535.5 286" fill="#009856"/><g fill="#fff">
	<path id="path134" d="m547.87 308.74c-0.054-0.48-0.055-2.974-0.055-3.431v-0.617c6.473-0.913 9.709-4.136 9.708-7.11-0.002-2.584-2.356-3.935-5.031-4.508-2.221-0.458-5.484-0.574-10.594-0.576 0 0.343 0.082 5.078 0.082 5.604l0.001 2.516c0 1.624-0.051 7.137-0.077 8.12zm-0.058-13.037c2.862 0.184 3.639 1.236 3.639 2.518 0.001 1.898-2.085 3.041-3.637 3.246z" fill-rule="evenodd" inkscape:connector-curvature="0" clip-rule="evenodd"/>
	<path id="path136" inkscape:connector-curvature="0" d="m567.27 299.37c-0.001-2.745 0.077-6.451 0.104-6.862l-6.206-0.002c0 0.549 0.082 6.427 0.083 6.816l0.001 2.47c0 0.595-0.024 5.947-0.078 6.954l6.207 0.002c-0.027-0.526-0.109-4.621-0.11-6.908z"/>
	<path id="path138" inkscape:connector-curvature="0" d="m584.97 305.05c-1.258 0.091-5.297 0.043-5.993 0.043l-0.001-2.722c0.589 0 4.146 0.093 4.869 0.093l-0.081-3.66c-1.178 0.091-4.254 0.204-4.789 0.204l-0.001-3.019c0.481 0 4.682-0.112 5.671-0.112l-0.108-3.774c-0.99 0.068-9.979 0.408-11.477 0.407 0.027 0.663 0.083 6.176 0.083 6.542l0.001 3.064c0 0.526 0.003 5.421-0.077 6.633 1.391 0.001 11.049 0.233 12.012 0.234z"/>
	<path id="path140" inkscape:connector-curvature="0" d="m592.56 309.46c0.481-1.075 2.405-6.976 2.859-8.165 0.428 0.687 3.238 4.576 5.3 7.23h0.268c2.006-2.401 5.428-6.905 5.748-7.317 0.295 0.618 2.839 6.428 3.695 8.259l5.403-2.057c-0.723-1.258-6.104-11.645-7.951-15.031h-0.268c-1.417 1.967-5.187 7.317-6.229 8.667-0.83-1.167-4.791-6.772-6.425-9.038h-0.267c-1.551 2.904-6.95 14.865-7.404 15.78z"/>
	<path id="path142" d="m627.76 309.13c8.962 0.004 11.661-5.462 11.661-8.916-0.002-5.032-3.99-8.053-10.356-8.056-7.892-0.003-11.636 4.73-11.634 9.145 0.001 3.66 3.186 7.801 10.329 7.827zm0.293-3.545c-2.193-0.001-4.094-1.557-4.095-4.622-0.001-2.791 1.71-5.26 4.76-5.259 2.568 0.001 4.174 1.717 4.148 4.667-0.025 3.409-1.924 5.215-4.813 5.214z" fill-rule="evenodd" inkscape:connector-curvature="0" clip-rule="evenodd"/>
	<path id="path144" inkscape:connector-curvature="0" d="m648.12 308.94c-0.027-0.755-0.057-7.366-0.057-8.303 0.401 0.274 10.061 6.82 13.271 8.606l0.269-0.114c0.079-1.487 0.265-4.735 0.479-8.051 0.238-3.339 0.479-6.748 0.638-8.532l-5.457-0.117c-0.026 0.984 0.056 7.114 0.057 8.372-0.937-0.595-9.526-6.157-13.326-8.537l-0.268 0.137c-0.266 3.042-0.903 14.753-1.063 16.377z"/>
	<path id="path146" inkscape:connector-curvature="0" d="m676.74 308.79c-0.054-0.458-0.081-3.614-0.082-5.97l-0.003-6.359c0.428 0 5.377 0.117 5.886 0.14l-0.002-4.003c-1.311 0.091-7.143 0.18-7.65 0.18l-2.328-0.001c-0.294 0-6.634-0.094-7.838-0.186l0.001 4.003c0.829-0.022 4.629-0.136 5.912-0.135l0.002 5.993c0.001 2.493-0.023 5.741-0.077 6.336z"/>
	<path id="path148" inkscape:connector-curvature="0" d="m697.32 305.09c-1.257 0.091-5.297 0.043-5.992 0.043l-0.002-2.722c0.589 0 4.147 0.093 4.869 0.094l-0.081-3.66c-1.178 0.091-4.254 0.204-4.789 0.204l-0.001-3.02c0.481 0 4.682-0.112 5.672-0.112l-0.109-3.774c-0.99 0.068-9.979 0.407-11.476 0.407 0.026 0.664 0.082 6.176 0.082 6.542l0.002 3.065c0 0.526 0.002 5.421-0.078 6.633 1.392 0 11.049 0.233 12.012 0.234z"/></g><g fill="#005da4">
	<path id="path150" inkscape:connector-curvature="0" d="m397.13 448.3h41.175l-0.187-42.965c0.588-11.575 9.914-25.007 31.64-20.21v-34.219c-13.731-2.686-22.031-1.636-30.553 6.716l-0.901 1.535v-13.004h-41.175v102.15z"/>
	<path id="path152" d="m241 448.41h48.414l6.201-15.775h59.146l6.201 15.775h48.415l-57.72-142h-50.56zm100.41-50.88h-31.96l15.5-39.44h0.477z" fill-rule="evenodd" inkscape:connector-curvature="0" clip-rule="evenodd"/>
	<path id="path154" d="m555.48 396.48c0-10.648-9.473-19.128-21.59-19.128-11.896 0-21.37 8.479-21.37 19.128s9.474 19.128 21.37 19.128c12.118 0 21.59-8.478 21.59-19.128zm-88.875 83.876v-134.67l43.712-0.065-0.029 10.326h0.44c3.966-5.521 13.219-13.015 29.741-13.015 27.979 0 51.992 21.1 51.992 50.088 0 35.298-22.691 56.792-55.958 56.792-14.319 0-23.132-5.521-26.216-8.281l-0.043 38.855z" fill-rule="evenodd" inkscape:connector-curvature="0" clip-rule="evenodd"/>
</g></g>
</svg>
