<?xml version="1.0" encoding="utf-8"?><svg version="1.1" id="Layer_1" xmlns="http://www.w3.org/2000/svg" xmlns:xlink="http://www.w3.org/1999/xlink" x="0px" y="0px" viewBox="0 0 122.88 98.94" style="enable-background:new 0 0 122.88 98.94" xml:space="preserve"><style type="text/css">.st0{fill-rule:evenodd;clip-rule:evenodd;}</style><g><path class="st0" d="M26.76,22.96c-4.81,0-10.08-0.78-14.56,1v-0.12c-1.04,0.46-2.06,1.09-3.04,1.86l-0.03,0.03 c-0.91,0.72-1.78,1.57-2.59,2.53l0,0.01c-0.09,0.11-0.18,0.22-0.27,0.33l0,0c-0.04,0.05-0.08,0.1-0.13,0.16l-0.01,0.02 C6.03,28.89,5.94,29,5.86,29.11l-0.01,0.01c-0.04,0.05-0.07,0.1-0.11,0.15l-0.02,0.02L5.72,29.3c-0.04,0.05-0.07,0.1-0.11,0.15 l-0.03,0.05l-0.1,0.14l-0.01,0.02c-0.04,0.05-0.08,0.11-0.12,0.16l-0.03,0.04l-0.09,0.12L5.2,30.02c-0.04,0.05-0.07,0.1-0.1,0.15 l-0.01,0.01l-0.02,0.03c-0.03,0.04-0.06,0.09-0.09,0.13L4.94,30.4c-0.04,0.05-0.07,0.11-0.11,0.16l0,0.01 c-0.04,0.05-0.07,0.11-0.11,0.17L4.7,30.78l-0.09,0.14l-0.02,0.04c-0.03,0.06-0.07,0.11-0.1,0.17l-0.03,0.05l-0.07,0.12l-0.04,0.07 c-0.03,0.05-0.06,0.11-0.1,0.16l-0.02,0.03L4.15,31.7l-0.03,0.06c-0.03,0.06-0.06,0.11-0.09,0.17l0,0.01l0,0 c-0.03,0.06-0.07,0.12-0.1,0.18l-0.02,0.04l-0.08,0.15l-0.02,0.04L3.7,32.52l-0.03,0.07l-0.07,0.14l-0.02,0.04 c-0.03,0.06-0.06,0.12-0.09,0.18L3.46,33l-0.07,0.14l-0.02,0.05c-0.03,0.06-0.06,0.13-0.09,0.19c-1.7,3.59-2.15,6.29-2.43,10.12 C0.28,47.36-0.02,51.19,0,54.96c0.01,0.09,0.03,0.18,0.05,0.27l0,0.01c0.02,0.08,0.04,0.17,0.06,0.25l0,0.01 c0.02,0.08,0.04,0.16,0.06,0.23l0.01,0.02c0.02,0.07,0.04,0.15,0.07,0.22l0.01,0.02c0.02,0.07,0.05,0.13,0.07,0.2l0.01,0.03 c0.02,0.06,0.05,0.12,0.08,0.18l0.02,0.04c0.03,0.06,0.05,0.11,0.08,0.17c1.69,3.32,6.41,2.42,8.01-0.28l0.01-0.02l0.01-0.02 c0.02-0.03,0.04-0.06,0.05-0.1c0.02-0.03,0.03-0.06,0.04-0.09c0.01-0.02,0.02-0.05,0.03-0.07c0.02-0.04,0.04-0.08,0.05-0.11 l0.02-0.05c0.02-0.05,0.04-0.09,0.06-0.14l0.01-0.03c0.02-0.05,0.04-0.1,0.05-0.16l0-0.01c0.02-0.06,0.04-0.12,0.05-0.18l0-0.01 c0.02-0.06,0.03-0.12,0.04-0.18l0,0c0.01-0.06,0.02-0.13,0.03-0.19l0.91-11.84c0.14-1.79,0.26-3,0.98-4.7 c0.34-0.8,0.75-1.49,1.23-2.05l0.07,3.17v0L12.58,58L6.64,93.54c0.07,6.96,9.44,6.92,10.46,1.18l5.38-31.7l5.26,31.21 c2.21,7.79,11.33,4.88,10.46-1.05l-1.56-11.92L32.54,57.8l0.32-18.62v0.36l0.01-0.5l4.04,5.58c0.8,1.11,1.98,1.79,3.23,2l9.51,1.83 v15.28h-8.24c-1.04,0-1.91,0.87-1.91,1.91c0,1.04,0.87,1.91,1.91,1.91h38.44v8.54c-0.23,0.07-0.44,0.23-0.64,0.4h-0.03L67.26,87.8 c-0.77,0.7-0.8,1.91-0.07,2.68c0.7,0.77,1.91,0.8,2.68,0.07l9.95-9.44v8.61c0,1.04,0.87,1.91,1.91,1.91c1.04,0,1.91-0.87,1.91-1.91 v-8.24l9.58,9.08c0.74,0.74,1.94,0.7,2.68-0.07c0.74-0.74,0.7-1.94-0.07-2.68L83.91,76.48c-0.1-0.07-0.17-0.13-0.27-0.2v-8.74 h37.33c1.04,0,1.91-0.87,1.91-1.91c0-1.04-0.87-1.91-1.91-1.91h-8.34V16.49h8.14c1.04,0,1.91-0.87,1.91-1.91 c0-1.04-0.87-1.91-1.91-1.91h-37.4V7.11c0-1.04-0.87-1.91-1.91-1.91s-1.91,0.87-1.91,1.91v5.56H41.42c-1.04,0-1.91,0.87-1.91,1.91 c0,1.04,0.87,1.91,1.91,1.91h8.24v21.74l-5.78-1.11l-8.1-11.19c-0.74-1.02-1.79-1.68-2.93-1.94C31.06,23.3,29.05,22.96,26.76,22.96 L26.76,22.96z M54.72,39.21L66.36,27c0.47-0.49,1.25-0.51,1.75-0.04c0.49,0.47,0.51,1.25,0.04,1.75L56.96,40.44 c1.2,1.14,1.81,2.84,1.48,4.59c-0.46,2.42-2.59,4.1-4.97,4.08v14.63h55.37V16.49H53.47v22.48l0.98,0.19 C54.54,39.17,54.63,39.19,54.72,39.21L54.72,39.21z M22.49,0c5.86,0,10.62,4.75,10.62,10.62c0,5.86-4.75,10.62-10.62,10.62 c-5.86,0-10.62-4.75-10.62-10.62C11.87,4.75,16.62,0,22.49,0L22.49,0z"/></g></svg>